<?xml version="1.0" encoding="UTF-8"?>
<svg width="128px" height="128px" viewBox="0 0 128 128" version="1.1" xmlns="http://www.w3.org/2000/svg" xmlns:xlink="http://www.w3.org/1999/xlink">
    <title>red</title>
    <g id="页面-1" stroke="none" stroke-width="1" fill="none" fill-rule="evenodd">
        <g id="red" fill-rule="nonzero">
            <path d="M16,0 L112,0 C120.836556,0 128,7.163444 128,16 L128,112 C128,120.836556 120.836556,128 112,128 L16,128 C7.163444,128 0,120.836556 0,112 L0,16 C0,7.163444 7.163444,0 16,0 Z" id="路径" fill="#138535"></path>
            <g id="裁判人员" transform="translate(32.000000, 27.000000)" fill="#FFFFFF">
                <path d="M19.1678094,24.8827971 C20.7100165,29.7101266 24.80523,33.3379874 29.863987,34.3583088 C30.7504437,34.6287036 31.6861448,34.7080718 32.6068736,34.5909664 C37.9011757,33.5727061 42.2301207,29.8501245 43.9455777,24.8404957 C44.8744902,24.3238677 45.5861999,23.5013504 45.9541481,22.5192069 C46.4775145,21.1102742 46.6998819,19.611103 46.6074734,18.1145746 L46.6074734,17.5858071 L46.1161296,17.2791221 C45.939002,17.1541614 45.7467625,17.05115 45.543795,16.972437 C46.5264827,10.0561595 45.2306308,5.41358183 41.4888585,2.82262162 C34.9909987,-1.09230941 26.7553507,-0.922732182 20.431265,3.25621086 C16.9864587,5.96878759 16.0469661,9.5062414 17.1538396,17.1363549 L16.8676723,17.2949851 L16.3763284,17.6016702 L16.3763284,18.1938897 C16.2961377,19.7188606 16.5312089,21.2439874 17.0674495,22.6778372 C17.4796952,23.6384242 18.2177421,24.4303042 19.1570106,24.9198109 L19.1678094,24.8827971 Z M63,66.2218317 L59.15024,45.1345882 L59.1016456,45.0288347 L59.0260542,44.6322592 C58.8749027,44.4167109 58.7108336,44.210129 58.5347104,44.0136013 C54.9171238,38.5567218 38.23843,38.1125572 38.23843,38.1125573 L34.0215118,47.5722058 L33.2871958,40.7405312 L33.2494001,40.7405312 C33.8477716,39.9028821 33.6956167,38.7566755 32.8984402,38.0966942 C32.1033571,37.4282112 30.9290392,37.4282112 30.1339561,38.0966942 C29.3367796,38.7566755 29.1846248,39.9028821 29.7829962,40.7405312 L29.7452006,40.7405312 L29.0108845,47.5722058 L24.7777683,38.1072696 C24.7777683,38.1072696 6.73842992,38.6095986 3.8605588,45.1345882 L0,66.216544 C2.74946126,68.7656662 6.33273536,70.2776123 10.1130443,70.4836969 L16.651697,70.4836969 L16.9108674,74 L46.0675351,74 L46.3267056,70.4889845 L52.8653583,70.4889845 C56.6477736,70.2850385 60.2334704,68.7728775 62.9838019,66.2218317 L63,66.2218317 Z M40.7653412,49.158508 L39.1887213,52.1671945 L24.2918238,52.1671945 L22.9851731,49.1532203 L40.8031368,49.1532203 L40.7653412,49.158508 Z M44.5449092,57.3173889 C41.3970689,56.5665391 40.6195578,57.8197179 40.6195578,57.8197179 C39.7831641,60.8973302 40.9183218,64.1656046 43.4974289,66.1055028 L43.3624443,71.7580263 L19.5727631,71.7580263 L19.4377786,66.1002152 C22.0159768,64.162045 23.1511761,60.8957366 22.3156497,57.8197179 C22.3156497,57.8197179 21.5327392,56.5612515 18.3902983,57.3173889 L17.2132328,49.158508 L21.9376929,49.158508 L23.7680836,53.4256609 L39.2049195,53.4256609 L41.0299109,49.158508 L45.754371,49.158508 L44.5449092,57.3173889 L44.5449092,57.3173889 Z" id="形状"></path>
            </g>
        </g>
    </g>
</svg>