<?xml version="1.0" encoding="UTF-8"?>
<svg width="32px" height="32px" viewBox="0 0 32 32" version="1.1" xmlns="http://www.w3.org/2000/svg" xmlns:xlink="http://www.w3.org/1999/xlink">
    <title>logo</title>
    <g id="页面-1" stroke="none" stroke-width="1" fill="none" fill-rule="evenodd">
        <g id="logo" fill="#215E21">
            <path d="M26.6666667,32 L5.33333334,32 C2.43809525,32 0,29.5619048 0,26.6666667 L0,5.33333334 C0,2.43809525 2.43809525,0 5.33333334,0 L26.6666667,0 C29.5619048,0 32,2.43809525 32,5.33333334 L32,26.6666667 C32,29.5619047 29.5619048,32 26.6666667,32 Z M5.33333334,1.52380953 C3.2,1.52380953 1.52380953,3.2 1.52380953,5.33333334 L1.52380953,26.6666667 C1.52380953,28.8 3.2,30.4761905 5.33333334,30.4761905 L26.6666667,30.4761905 C28.8,30.4761905 30.4761905,28.8 30.4761905,26.6666667 L30.4761905,5.33333334 C30.4761905,3.2 28.8,1.52380953 26.6666667,1.52380953 L5.33333334,1.52380953 Z" id="形状" fill-rule="nonzero"></path>
            <g id="编组-2" transform="translate(5.000000, 3.000000)">
                <path d="M7.99037047,6.60769028 C7.83412133,6.66994126 7.2613751,6.76333243 7.09473494,6.60769028 C6.92824237,6.45216574 6.60523499,6.00614643 6.60523499,6.00614643 C6.60523499,6.00614643 7.11560555,6.08906932 7.38636261,6.21360069 C7.65711966,6.33798503 7.92787672,6.36924285 8.07361676,6.28617293 C8.21950439,6.20313241 8.14650153,6.54555692 7.99037047,6.60769028 M6.76148413,2.92535505 L7.06350282,3.07055834 C7.06350282,3.07055834 7.09473494,3.28833385 7.29260722,3.37137437 L6.76148413,3.1483059 C6.76148413,3.1483059 6.65736723,2.98763544 6.76148413,2.92535505 M6.10549161,2.81120375 L4.3872234,1.9190475 C4.26220638,1.52492851 4.6163278,1.68045304 4.6163278,1.68045304 L6.01173623,2.39629522 C6.28249328,2.63488968 6.10549161,2.81120375 6.10549161,2.81120375 M14.280188,22.0948641 C14.280188,22.0948641 14.0614451,21.8459484 14.2489559,21.659166 C14.4363486,21.4725307 13.6865712,21.1302238 13.6865712,21.1302238 C13.6865712,21.1302238 13.2388124,19.2526378 12.6869368,18.9103603 C12.6869368,18.9103603 11.9266798,18.0180864 11.4476594,17.7069197 C11.4476594,17.7069197 11.9146947,17.883469 11.6767933,16.4620177 C11.6559227,16.3375158 11.6142996,15.9432791 11.8017809,15.7150647 C11.9891735,15.4869386 11.9058092,15.2794843 11.8433154,14.9475281 C11.7809102,14.6154542 11.8017809,14.2836156 11.8017809,14.2836156 C11.8017809,14.2836156 12.3640475,13.5733016 12.5723108,13.0777638 C12.7806922,12.5823731 13.0096785,12.0843064 12.884691,11.0677658 C12.7598216,10.0511958 12.5306877,9.94736575 12.5306877,9.94736575 C12.5306877,9.94736575 12.4265412,9.15895133 12.5306877,9.09670035 C12.6348046,9.03441997 12.6556752,8.41267469 12.6556752,8.41267469 C12.6556752,8.41267469 13.3013062,7.70730079 12.988926,7.35464324 C12.988926,7.35464324 12.6556752,7.29239226 12.5723108,7.68659947 L12.4473233,6.56634645 L12.7598216,6.04749025 C12.7598216,6.04749025 12.738951,5.05162157 12.5306877,4.6782039 C12.3224244,4.30478623 11.7809102,3.59938292 11.197773,3.22596525 L11.197773,3.08055613 L10.9061748,2.91456332 L10.2605143,3.03909468 C10.2605143,3.03909468 10.1980206,2.76938944 9.90639289,2.93535285 C9.90639289,2.93535285 10.302167,2.72781037 10.1147743,2.2714404 C10.1147743,2.2714404 9.98978677,0.653238335 8.5527552,0.549525906 C7.11560555,0.445666451 6.71986099,1.25489981 6.61574409,1.79431029 L6.46997454,2.08468745 L6.38661018,2.20918942 L4.63719841,1.31715079 L4.11646634,1.71124037 L2.92412571,1.13589663 C2.92412571,1.13589663 2.72105791,0.513445625 2.87718897,0.280026498 L2.86163195,0.155642157 L2.58048387,0 C2.58048387,0 2.3774456,0.497949042 2.42423473,0.933617697 L2.28369021,1.19802999 L0.190518525,0.155642157 C0.190518525,0.155642157 -0.0281062861,0.155642157 0.00303726989,0.497949042 L2.23687156,1.55595108 L2.23687156,1.8360952 L2.51799012,1.94501236 L2.72105791,1.94501236 L2.72105791,2.64509331 C2.72105791,2.64509331 2.98661946,3.46982325 3.48639235,3.78098994 L4.08000919,3.78098994 C4.08000919,3.78098994 4.14250295,4.13891103 4.64239392,4.32557576 L4.64239392,4.76136204 L5.2515973,5.32144444 L5.45466509,5.97488861 C5.45466509,5.97488861 5.688965,6.00614643 5.45466509,6.55070284 C5.45466509,6.55070284 5.37646672,6.76850776 5.70455154,7.09517104 C5.70455154,7.09517104 5.90758981,7.59312008 6.23567463,8.13779411 C6.23567463,8.13779411 6.62622368,8.60448534 7.18849033,8.26220786 C7.18849033,8.26220786 7.95394284,7.73323625 8.15701064,7.99764854 C8.15701064,7.99764854 7.21975196,9.05579761 8.26112753,10.300582 L8.26112753,11.1097859 C8.26112753,11.1097859 8.17788125,11.7942821 8.59437834,12.0225259 C8.59437834,12.0225259 8.13614003,12.5621422 7.90700611,12.9978109 C7.67799027,13.4335089 7.32386885,13.4749704 7.32386885,13.4749704 L7.49050902,13.8069266 C7.49050902,13.8069266 6.78235474,14.61616 6.71986099,15.0934077 C6.71986099,15.0934077 6.24084062,15.3423234 6.28249328,15.5497777 C6.28249328,15.5497777 5.78272039,15.902641 5.86596667,16.3174025 L6.21997001,19.0561223 C6.21997001,19.0561223 6.49072707,18.9315027 6.49072707,18.6411255 C6.49072707,18.6411255 6.71986099,18.5789628 6.92824237,19.6163223 L7.0531118,19.4917909 L7.1780993,20.54994 L7.71961342,22.0021492 L8.13614003,22.2718545 C8.13614003,22.2718545 8.07361676,22.3755963 7.99037047,22.5207702 C7.90700611,22.6660617 8.011123,22.7905931 8.07361676,22.811265 C8.13614003,22.8320545 7.82375983,22.8941879 8.17788125,23.2677232 C8.53188459,23.6411702 8.17788125,23.5996794 8.17788125,23.5996794 L8.19863378,23.8695023 L7.30299824,24.097746 L7.21975196,24.3258722 L7.80288922,24.1806689 C7.80288922,24.1806689 7.32386885,24.9276513 6.96986551,25.1144043 C6.61574409,25.301069 6.26162267,25.238818 6.32423451,25.5914461 C6.38661018,25.9441919 7.03235927,26.0893658 8.36524442,25.9441919 C9.69827718,25.7989886 10.302167,25.5707742 10.4687776,24.9068618 C10.4687776,24.9068618 10.4271545,24.3467794 10.3230376,23.7451179 C10.2188912,23.1434564 9.94813411,22.0438459 10.0106574,21.6704283 C10.0731511,21.2970106 10.031528,19.4505647 9.80239407,19.1186085 C9.80239407,19.1186085 11.0311623,20.040964 12.2183075,21.5035239 L12.8431859,22.3748906 L12.6556752,22.4993926 L12.6556752,22.8416994 C12.6556752,22.8416994 12.3745566,23.1218436 12.3120629,23.3707593 C12.2495396,23.619675 11.4997917,23.681926 11.4997917,23.681926 C11.4997917,23.681926 10.4687776,24.179875 12.8431859,24.0243505 C12.8431859,24.0243505 15.0611975,23.8687083 14.9987038,23.4330102 C14.93621,22.9973416 14.7175852,22.4371416 14.280188,22.0948641" id="Fill-4"></path>
                <path d="M15.2048772,4.88509532 C15.2048772,4.88509532 14.4862952,4.56493987 14.7399141,3.92462899 C14.7399141,3.92462899 14.6553046,2.84408665 15.2048772,2.52401629 L15.8390893,2.20386084 L15.9183359,2.20386084 L15.9183359,1.09339876 C15.9183359,1.09339876 16.0927082,0.883251551 16.3147184,1.09339876 L16.3147184,2.15888197 C16.3147184,2.15888197 17.2500675,1.90375589 18.0903806,3.95962516 C18.0903806,3.95962516 17.9317976,4.09467523 17.7574252,4.09467523 C17.7574252,4.09467523 18.1695971,4.10973436 18.3439995,4.51488457 L18.9780918,4.49991052 C18.9780918,4.49991052 19.5171481,4.86504483 19.8501035,4.88509532 C19.8501035,4.88509532 20.2780948,5.53527546 20.3257326,5.94051074 C20.3257326,5.94051074 20.7696631,6.42075809 20.5476529,7.56125336 L20.5318336,7.72630825 C20.5318336,7.72630825 20.7220253,7.83631648 20.8699422,8.18647675 C20.8699422,8.18647675 21.1448633,7.9563925 21.4196646,8.76674963 L21.8846277,10.5476692 L21.8846277,10.7077611 C21.8846277,10.7077611 22.2439486,12.2086262 21.6943461,13.5491726 C21.6943461,13.5491726 21.3350551,14.5496548 21.2928102,14.7896934 C21.2504455,15.0298738 20.7220253,15.1899657 20.5951409,15.3299787 C20.4684064,15.4700201 20.0668705,15.7301092 20.0668705,15.7301092 C20.0668705,15.7301092 20.4684064,16.150432 20.3839166,16.6706669 C20.3839166,16.6706669 20.7432076,17.3710158 20.4473439,17.6910578 C20.1512404,18.0112132 20.0668705,17.9111877 20.0668705,17.9111877 C20.0668705,17.9111877 20.1936051,18.5915995 20.3415519,18.8918179 C20.4894689,19.1919229 20.3204595,19.4119393 20.3204595,19.4119393 C20.3204595,19.4119393 21.8000181,19.9522247 21.7577733,20.3524686 C21.7155284,20.7525991 20.9333694,21.332872 20.9333694,21.332872 L20.9545817,21.9533593 C20.9545817,21.9533593 21.3139926,22.4936446 21.2716279,22.8937751 C21.2716279,22.8937751 21.4617896,23.3540854 21.3772999,23.534086 C21.2928102,23.7141149 20.9757641,24.1943623 19.200102,23.9141944 C19.200102,23.9141944 19.1156122,23.594124 19.2423468,23.3940729 C19.3692012,23.1938801 19.2423468,22.8738381 19.2423468,22.8738381 C19.2423468,22.8738381 19.2211645,22.2934518 19.411476,22.2134767 C19.411476,22.2134767 19.1156122,21.5132129 18.8196286,21.052931 C18.523645,20.5928475 18.3429509,20.3125945 18.3429509,20.3125945 L18.164354,19.4323018 C18.164354,19.4323018 17.3399501,18.4316211 17.2130957,18.6318139 C17.0862114,18.8318933 16.6845557,18.9720198 16.2195627,18.2917214 C15.7545996,17.6113947 15.3951888,17.0311501 15.3951888,17.0311501 C15.3951888,17.0311501 15.4163711,16.0106175 15.4796785,15.810538 C15.5431057,15.6103735 16.2195627,13.8896054 16.2195627,13.8896054 L15.9870362,13.109168 L16.1561355,12.8290001 C16.1561355,12.8290001 16.0927082,11.7283789 16.346447,11.3083114 C16.346447,11.3083114 16.1138906,10.8480011 16.0716457,10.3276527 L16.240775,10.3077157 L16.0504634,9.74737987 L16.240775,9.6274173 L15.8390893,8.52690955 C15.8390893,8.52690955 15.6065628,8.28675752 15.5220432,9.00704346 C15.5220432,9.00704346 15.2048772,9.4872908 14.8245237,9.56726585 C14.4440504,9.64735434 14,9.30714842 14,8.74692602 C14,8.74692602 14.0423647,8.38666962 14.2537388,7.70637121 C14.464993,7.02595936 14.5284202,7.58626683 14.7610965,6.50583793 L14.9935331,6.30564506 L15.0781426,5.34529218 L15.2048772,4.88509532 Z" id="Fill-3"></path>
            </g>
        </g>
    </g>
</svg>